Poster: 
http://imgr.us/images/p0r3sqkd6bzs2i5o1kje.jpg


Info:

Format : AVI
Format/Info : Audio Video Interleave
Format profile : OpenDML
File size : 2.18 GiB
Duration : 2h 36mn
Overall bit rate : 1 999 Kbps
Director : TmG
Writing application : VirtualDubMod 1.5.10.2 (build 2540/release)
Writing library : VirtualDubMod build 2540/release

Video
ID : 0
Format : MPEG-4 Visual
Format profile : Advanced Simple@L5
Format settings, BVOP : 2
Format settings, QPel : No
Format settings, GMC : No warppoints
Format settings, Matrix : Default (MPEG)
Codec ID : XVID
Codec ID/Hint : XviD
Duration : 2h 36mn
Bit rate : 1 539 Kbps
Width : 720 pixels
Height : 304 pixels
Display aspect ratio : 2.35:1
Frame rate : 23.976 fps
Color space : YUV
Chroma subsampling : 4:2:0
Bit depth : 8 bits
Scan type : Progressive
Compression mode : Lossy
Bits/(Pixel*Frame) : 0.293
Stream size : 1.68 GiB (77%)
Writing library : XviD 1.2.1 (UTC 2008-12-04)

Audio
ID : 1
Format : AC-3
Format/Info : Audio Coding 3
Mode extension : HI (hearing impaired)
Format settings, Endianness : Big
Codec ID : 2000
Duration : 2h 36mn
Bit rate mode : Constant
Bit rate : 448 Kbps
Channel(s) : 6 channels
Channel positions : Front: L C R, Side: L R, LFE
Sampling rate : 48.0 KHz
Bit depth : 16 bits
Compression mode : Lossy
Stream size : 501 MiB (22%)
Alignment : Split accross interleaves
Interleave, duration : 42 ms (1.00 video frame)
Interleave, preload duration : 500 ms


Screens: 
http://www.shotpix.com/images/75777339382490871874.jpg 
http://www.shotpix.com/images/21756725319190004985.jpg 
http://www.shotpix.com/images/71582527098367012093.jpg 
http://www.shotpix.com/images/76862355798088686384.jpg 
http://www.shotpix.com/images/30609547755632824766.jpg 
http://www.shotpix.com/images/07965108690076316567.jpg 
http://www.shotpix.com/images/65050902084318708232.jpg

